HIERARCHY
ROOT Hips
{
	OFFSET 0.000000 0.000000 0.000000
	CHANNELS 6 Xposition Yposition Zposition Xrotation Yrotation Zrotation
	JOINT LeftUpLeg_virtual
	{
		OFFSET 0.000000 0.000000 0.000000
		CHANNELS 3 Xrotation Yrotation Zrotation
		JOINT LeftUpLeg
		{
			OFFSET 15.427100 -6.655098 0.678600
			CHANNELS 3 Xrotation Yrotation Zrotation
			JOINT LeftLeg
			{
				OFFSET 4.081073 -39.591068 13.024000
				CHANNELS 3 Xrotation Yrotation Zrotation
				JOINT LeftFoot
				{
					OFFSET -4.081074 -37.707932 -15.979700
					CHANNELS 3 Xrotation Yrotation Zrotation
					JOINT LeftToeBase
					{
						OFFSET 5.346399 -15.068900 20.645000
						CHANNELS 3 Xrotation Yrotation Zrotation
						JOINT LeftToe_End
						{
							OFFSET 2.754700 0.931300 11.300900
							CHANNELS 3 Xrotation Yrotation Zrotation
							End Site
							{
								OFFSET 0 0 0
							}
						}
					}
				}
			}
		}
	}
	JOINT RightUpLeg_virtual
	{
		OFFSET 0.000000 0.000000 0.000000
		CHANNELS 3 Xrotation Yrotation Zrotation
		JOINT RightUpLeg
		{
			OFFSET -15.569500 -6.655098 0.678600
			CHANNELS 3 Xrotation Yrotation Zrotation
			JOINT RightLeg
			{
				OFFSET -4.081825 -39.591045 13.023800
				CHANNELS 3 Xrotation Yrotation Zrotation
				JOINT RightFoot
				{
					OFFSET 4.081824 -37.707954 -15.979600
					CHANNELS 3 Xrotation Yrotation Zrotation
					JOINT RightToeBase
					{
						OFFSET -5.346400 -15.068900 20.645000
						CHANNELS 3 Xrotation Yrotation Zrotation
						JOINT RightToe_End
						{
							OFFSET -2.754700 0.931300 11.300900
							CHANNELS 3 Xrotation Yrotation Zrotation
							End Site
							{
								OFFSET 0 0 0
							}
						}
					}
				}
			}
		}
	}
	JOINT Spine_virtual
	{
		OFFSET 0.000000 0.000000 0.000000
		CHANNELS 3 Xrotation Yrotation Zrotation
		JOINT Spine
		{
			OFFSET -0.279200 12.230698 -2.892100
			CHANNELS 3 Xrotation Yrotation Zrotation
			JOINT Spine1
			{
				OFFSET -0.232667 10.192268 -1.242267
				CHANNELS 3 Xrotation Yrotation Zrotation
				JOINT Spine1_split
				{
					OFFSET -0.232667 10.192268 -1.242267
					CHANNELS 3 Xrotation Yrotation Zrotation
					JOINT Spine2
					{
						OFFSET -0.232667 10.192268 -1.242267
						CHANNELS 3 Xrotation Yrotation Zrotation
						JOINT Neck_virtual
						{
							OFFSET 0.000000 0.000000 0.000000
							CHANNELS 3 Xrotation Yrotation Zrotation
							JOINT Neck
							{
								OFFSET -0.418800 17.814194 8.416900
								CHANNELS 3 Xrotation Yrotation Zrotation
								JOINT Head
								{
									OFFSET 0.000000 7.031097 3.806800
									CHANNELS 3 Xrotation Yrotation Zrotation
									JOINT HeadTop_End
									{
										OFFSET 0.000000 24.646606 12.978600
										CHANNELS 3 Xrotation Yrotation Zrotation
										End Site
										{
											OFFSET 0 0 0
										}
									}
								}
							}
						}
						JOINT LeftShoulder_virtual
						{
							OFFSET 0.000000 0.000000 0.000000
							CHANNELS 3 Xrotation Yrotation Zrotation
							JOINT LeftShoulder
							{
								OFFSET 8.476499 7.247704 -3.868750
								CHANNELS 3 Xrotation Yrotation Zrotation
								JOINT LeftShoulder_split
								{
									OFFSET 8.476499 7.247704 -3.868750
									CHANNELS 3 Xrotation Yrotation Zrotation
									JOINT LeftArm
									{
										OFFSET 9.308998 -2.777710 0.208600
										CHANNELS 3 Xrotation Yrotation Zrotation
										JOINT LeftForeArm
										{
											OFFSET 29.972298 0.000000 0.000000
											CHANNELS 3 Xrotation Yrotation Zrotation
											JOINT LeftHand
											{
												OFFSET 26.026505 0.000000 0.000000
												CHANNELS 3 Xrotation Yrotation Zrotation
												End Site
												{
													OFFSET 0 0 0
												}
											}
										}
									}
								}
							}
						}
						JOINT RightShoulder_virtual
						{
							OFFSET 0.000000 0.000000 0.000000
							CHANNELS 3 Xrotation Yrotation Zrotation
							JOINT RightShoulder
							{
								OFFSET -7.570500 7.247704 -3.868750
								CHANNELS 3 Xrotation Yrotation Zrotation
								JOINT RightShoulder_split
								{
									OFFSET -7.570500 7.247704 -3.868750
									CHANNELS 3 Xrotation Yrotation Zrotation
									JOINT RightArm
									{
										OFFSET -9.308998 -2.777710 0.208500
										CHANNELS 3 Xrotation Yrotation Zrotation
										JOINT RightForeArm
										{
											OFFSET -29.972300 0.000000 0.000000
											CHANNELS 3 Xrotation Yrotation Zrotation
											JOINT RightHand
											{
												OFFSET -26.026505 0.000000 0.000000
												CHANNELS 3 Xrotation Yrotation Zrotation
												End Site
												{
													OFFSET 0 0 0
												}
											}
										}
									}
								}
							}
						}
					}
				}
			}
		}
	}
}
MOTION
Frames: 8
Frame Time: 0.03333333
0.054760 93.655609 -0.204800 0.000000 0.000000 0.000000 0.889346 0.402750 0.160625 -6.566518 -1.984941 12.809044 14.015413 0.333719 -2.388325 -7.404365 12.127575 -7.062385 0.747941 0.196742 -1.739933 0.000000 0.000000 0.000000 1.837961 -0.377614 0.185624 -5.650811 -3.208313 -12.145784 13.620417 2.706042 0.941176 -7.160805 -12.333100 9.832488 -0.872628 0.162597 0.693680 0.000000 0.000000 0.000000 1.676026 -0.857672 -0.233587 3.158598 0.162247 1.564644 3.277447 0.030895 0.287929 0.966293 0.195823 0.159309 0.000000 0.000000 0.000000 2.729633 0.111885 0.073659 -2.939785 -0.327699 0.236807 -0.836213 -1.174772 1.707844 0.000000 0.000000 0.000000 2.648120 0.140609 0.254707 1.272915 9.733919 -13.138398 -0.600050 -2.178396 -0.542412 12.129733 -5.576028 -52.932310 -0.585670 -32.434113 0.759297 0.000000 0.000000 0.000000 2.636355 0.056796 0.324300 1.659738 -9.811842 11.402289 1.044979 2.091188 -1.918720 1.951658 17.514091 63.588289 2.110389 25.176648 0.196308 0.000000 0.000000 0.000000 
0.594304 93.518394 -0.558113 0.000000 0.000000 0.000000 0.996655 0.055045 0.210236 -6.754114 -1.992066 12.462509 13.955758 0.389594 -2.471232 -7.872035 11.687578 -7.208017 0.635975 0.189911 -1.723114 0.000000 0.000000 0.000000 1.820696 -0.469407 0.252462 -5.833332 -3.338386 -12.475003 13.544993 2.604885 0.945636 -7.311323 -12.289255 9.858658 -1.247077 0.131073 0.661385 0.000000 0.000000 0.000000 1.741880 -1.045125 -0.237598 3.201111 0.132645 1.631797 3.299307 -0.002490 0.280280 1.100645 -0.018294 0.084648 0.000000 0.000000 0.000000 2.778504 0.104283 0.062063 -2.939933 -0.240472 0.117629 -0.740436 -1.093918 1.648817 0.000000 0.000000 0.000000 2.701675 0.107809 0.234358 1.256120 9.491500 -13.090029 -0.609000 -1.987657 -0.499784 11.924446 -5.991220 -53.127093 -0.574119 -32.606743 0.773192 0.000000 0.000000 0.000000 2.680061 0.038684 0.334463 1.677100 -9.554791 11.513042 1.046845 2.145852 -1.962281 1.871047 17.523678 63.498964 2.138505 24.908576 0.243763 0.000000 0.000000 0.000000 
1.537611 93.207756 -0.904827 0.000000 0.000000 0.000000 1.036791 -0.430168 0.190456 -7.344280 -1.958492 12.026295 14.727141 0.039808 -2.713474 -8.346875 10.490194 -7.584987 0.426991 0.153300 -1.523215 0.000000 0.000000 0.000000 1.726058 -0.640198 0.267302 -5.996906 -3.256137 -13.027279 13.636643 2.595427 0.927892 -7.422218 -12.144042 10.302452 -1.510475 0.144644 0.484954 0.000000 0.000000 0.000000 1.871135 -1.379249 -0.240207 3.312264 0.028955 1.691207 3.245515 -0.049452 0.254181 1.126749 -0.060268 0.001841 0.000000 0.000000 0.000000 2.762171 0.069903 0.037349 -2.868884 -0.104267 -0.022844 -0.600445 -0.971347 1.596681 0.000000 0.000000 0.000000 2.685743 0.061868 0.207823 1.227013 8.997334 -13.051222 -0.523378 -1.726376 -0.400713 11.666719 -6.773050 -53.384796 -0.448180 -32.608368 0.793483 0.000000 0.000000 0.000000 2.673248 -0.002957 0.338058 1.698696 -8.982860 11.877780 0.956567 2.058243 -2.143158 1.660395 17.644588 63.089925 2.109946 24.230859 0.296169 0.000000 0.000000 0.000000 
2.765216 92.741699 -1.055458 0.000000 0.000000 0.000000 1.082870 -0.926815 0.114352 -8.258944 -1.913380 11.576949 16.102094 -0.462553 -3.042171 -8.910560 8.831133 -7.819516 0.379468 0.090398 -1.205935 0.000000 0.000000 0.000000 1.674548 -0.865703 0.199452 -6.152645 -3.027772 -13.737653 13.822180 2.666539 0.945347 -7.481918 -11.902998 11.020359 -1.579207 0.214545 0.180860 0.000000 0.000000 0.000000 2.042543 -1.775744 -0.263825 3.472028 -0.143513 1.735399 3.122551 -0.105177 0.217863 1.011121 0.013020 -0.022776 0.000000 0.000000 0.000000 2.693032 0.012558 0.009839 -2.717748 0.058174 -0.162311 -0.447500 -0.852606 1.589865 0.000000 0.000000 0.000000 2.601860 0.008498 0.185351 1.190122 8.337081 -13.000530 -0.459321 -1.364990 -0.306329 11.387819 -7.777040 -53.698001 -0.247299 -32.428352 0.806518 0.000000 0.000000 0.000000 2.609766 -0.068692 0.330352 1.719768 -8.171789 12.394219 0.818049 1.883209 -2.396030 1.304149 17.803030 62.444089 2.030550 23.325537 0.355026 0.000000 0.000000 0.000000 
4.114793 92.186615 -1.075588 0.000000 0.000000 0.000000 1.167800 -1.419719 -0.006657 -9.349812 -1.839103 11.109573 17.699240 -0.815785 -3.358394 -9.692507 7.098704 -7.535324 0.490521 0.029631 -0.839177 0.000000 0.000000 0.000000 1.718314 -1.270131 0.051560 -6.316862 -2.761569 -14.513285 14.052684 2.719666 1.063703 -7.472561 -11.677411 11.851529 -1.481438 0.327336 -0.159290 0.000000 0.000000 0.000000 2.239210 -2.153820 -0.319970 3.669304 -0.372638 1.768107 2.957810 -0.169482 0.180529 0.908196 0.092540 -0.027561 0.000000 0.000000 0.000000 2.576754 -0.062669 -0.007661 -2.518283 0.210562 -0.290275 -0.319599 -0.786113 1.664143 0.000000 0.000000 0.000000 2.466380 -0.049143 0.175744 1.149679 7.604133 -12.921426 -0.470767 -1.014116 -0.300305 11.099245 -8.884611 -54.064933 -0.052220 -32.171694 0.792759 0.000000 0.000000 0.000000 2.493788 -0.154840 0.307233 1.729042 -7.199459 12.943950 0.752943 1.701659 -2.623631 0.832246 17.944562 61.678411 1.908007 22.364174 0.416513 0.000000 0.000000 0.000000 
5.396594 91.673798 -1.050537 0.000000 0.000000 0.000000 1.345117 -1.924371 -0.151867 -10.357263 -1.730023 10.593611 19.132229 -0.854725 -3.555342 -10.726852 5.611729 -6.630239 0.624882 -0.005106 -0.479394 0.000000 0.000000 0.000000 1.828084 -1.746531 -0.139052 -6.624766 -2.508140 -15.312524 14.385830 2.718157 1.274245 -7.268865 -11.542898 12.774616 -1.665888 0.450372 -0.470773 0.000000 0.000000 0.000000 2.424206 -2.416029 -0.428156 3.892074 -0.642271 1.788121 2.782102 -0.240707 0.153850 0.821813 0.215877 -0.004759 0.000000 0.000000 0.000000 2.424957 -0.151816 -0.008977 -2.313841 0.334530 -0.393126 -0.242989 -0.794235 1.847329 0.000000 0.000000 0.000000 2.300496 -0.104883 0.179247 1.110360 6.879947 -12.807387 -0.520910 -0.749727 -0.338063 10.792247 -9.956736 -54.483534 0.096293 -31.942288 0.748871 0.000000 0.000000 0.000000 2.336470 -0.252903 0.268643 1.727724 -6.166564 13.442769 0.783396 1.563161 -2.797048 0.302748 18.036793 60.883309 1.772825 21.404430 0.472019 0.000000 0.000000 0.000000 
6.515673 91.263733 -0.977726 0.000000 0.000000 0.000000 1.581663 -2.477567 -0.287738 -11.140379 -1.614776 9.946269 20.248354 -0.646924 -3.580532 -11.839296 4.473953 -5.354139 0.667989 -0.012438 -0.168601 0.000000 0.000000 0.000000 2.015743 -2.241601 -0.312376 -7.105751 -2.253917 -16.173483 14.944683 2.712772 1.565982 -6.726558 -11.409264 13.813539 -2.743588 0.556466 -0.698439 0.000000 0.000000 0.000000 2.586843 -2.503584 -0.582161 4.160825 -0.924134 1.776768 2.622864 -0.314002 0.140908 0.794926 0.316749 0.060123 0.000000 0.000000 0.000000 2.245198 -0.244170 0.007890 -2.153631 0.421228 -0.457276 -0.201516 -0.867401 2.132144 0.000000 0.000000 0.000000 2.133023 -0.153896 0.189943 1.078933 6.208290 -12.645959 -0.586856 -0.608666 -0.433576 10.486967 -10.890963 -54.970366 0.172850 -31.782749 0.674874 0.000000 0.000000 0.000000 2.161192 -0.351075 0.220453 1.718041 -5.132389 13.863647 0.862316 1.432548 -2.890998 -0.217894 18.043002 60.115842 1.646176 20.471802 0.511802 0.000000 0.000000 0.000000 
7.473765 90.988342 -0.928860 0.000000 0.000000 0.000000 1.774726 -3.016289 -0.382870 -11.694460 -1.506664 9.166858 21.132225 -0.336756 -3.434852 -12.752886 3.704637 -4.043932 0.618556 -0.000969 0.035025 0.000000 0.000000 0.000000 2.205125 -2.658991 -0.403644 -7.747431 -2.010335 -17.037524 15.882469 2.659160 1.880597 -5.852629 -11.278305 14.866810 -4.861488 0.616518 -0.772977 0.000000 0.000000 0.000000 2.704589 -2.527831 -0.731240 4.499651 -1.191828 1.731079 2.492139 -0.384007 0.142281 0.828810 0.378326 0.126807 0.000000 0.000000 0.000000 2.038841 -0.331280 0.035263 -2.059122 0.458854 -0.471240 -0.158225 -0.980026 2.491857 0.000000 0.000000 0.000000 1.978444 -0.195560 0.200516 1.056046 5.619366 -12.441029 -0.668942 -0.595870 -0.528827 10.200720 -11.693163 -55.534509 0.206278 -31.703262 0.592044 0.000000 0.000000 0.000000 1.997997 -0.432883 0.169046 1.698258 -4.147808 14.223889 0.986926 1.354221 -2.877459 -0.690986 17.965955 59.399164 1.550997 19.647768 0.516250 0.000000 0.000000 0.000000 
